<svg width="139" height="40" viewBox="0 0 139 40" fill="none" xmlns="http://www.w3.org/2000/svg">
<g clip-path="url(#clip0_4725_1315)">
<path d="M133.333 40H5.12821C2.30897 40 0 37.7487 0 35V5C0 2.25125 2.30897 2.11397e-06 5.12821 2.11397e-06H133.333C136.153 2.11397e-06 138.462 2.25125 138.462 5V35C138.462 37.7487 136.153 40 133.333 40Z" fill="black"/>
<path d="M133.333 0.801252C135.708 0.801252 137.64 2.685 137.64 5V35C137.64 37.315 135.708 39.1988 133.333 39.1988H5.12821C2.75385 39.1988 0.821795 37.315 0.821795 35V5C0.821795 2.685 2.75385 0.801252 5.12821 0.801252H133.333ZM133.333 2.11397e-06H5.12821C2.30897 2.11397e-06 0 2.25125 0 5V35C0 37.7487 2.30897 40 5.12821 40H133.333C136.153 40 138.462 37.7487 138.462 35V5C138.462 2.25125 136.153 2.11397e-06 133.333 2.11397e-06Z" fill="#A6A6A6"/>
<path d="M10.7022 7.53869C10.4009 7.84619 10.2266 8.32494 10.2266 8.94494V31.0599C10.2266 31.6799 10.4009 32.1587 10.7022 32.4662L10.7766 32.5337L23.4868 20.1462V19.8537L10.7766 7.46619L10.7022 7.53869Z" fill="url(#paint0_linear_4725_1315)"/>
<path d="M27.7194 24.2775L23.4873 20.1462V19.8537L27.7245 15.7225L27.8194 15.7762L32.8373 18.56C34.2694 19.35 34.2694 20.65 32.8373 21.445L27.8194 24.2237L27.7194 24.2775Z" fill="url(#paint1_linear_4725_1315)"/>
<path d="M27.8188 24.2237L23.4868 20L10.7021 32.4662C11.1778 32.9537 11.9534 33.0125 12.8355 32.525L27.8188 24.2237Z" fill="url(#paint2_linear_4725_1315)"/>
<path d="M27.8188 15.7763L12.8355 7.475C11.9534 6.9925 11.1778 7.05125 10.7021 7.53875L23.4868 20L27.8188 15.7763Z" fill="url(#paint3_linear_4725_1315)"/>
<path d="M48.6336 10.2437C48.6336 11.0787 48.3772 11.7475 47.8721 12.2462C47.2913 12.8375 46.5349 13.135 45.608 13.135C44.7221 13.135 43.9656 12.8325 43.3451 12.2362C42.7233 11.6312 42.4131 10.8887 42.4131 9.99999C42.4131 9.11124 42.7233 8.36874 43.3451 7.76874C43.9656 7.16749 44.7221 6.86499 45.608 6.86499C46.049 6.86499 46.4695 6.95374 46.8708 7.11874C47.2708 7.28499 47.5964 7.50999 47.8323 7.78749L47.2964 8.31499C46.8849 7.84124 46.3246 7.60749 45.608 7.60749C44.9618 7.60749 44.4015 7.82749 43.9259 8.27124C43.4554 8.71624 43.2195 9.29249 43.2195 9.99999C43.2195 10.7075 43.4554 11.2887 43.9259 11.7337C44.4015 12.1725 44.9618 12.3975 45.608 12.3975C46.2939 12.3975 46.8708 12.1725 47.3259 11.7287C47.6259 11.435 47.7964 11.03 47.8413 10.5125H45.608V9.78999H48.5874C48.6233 9.94624 48.6336 10.0975 48.6336 10.2437Z" fill="white" stroke="white" stroke-width="0.123077" stroke-miterlimit="10"/>
<path d="M53.3606 7.73875H50.5618V9.63875H53.0849V10.3613H50.5618V12.2613H53.3606V12.9975H49.7695V7.0025H53.3606V7.73875Z" fill="white" stroke="white" stroke-width="0.123077" stroke-miterlimit="10"/>
<path d="M56.6965 12.9975H55.9042V7.73875H54.1875V7.0025H58.4144V7.73875H56.6965V12.9975Z" fill="white" stroke="white" stroke-width="0.123077" stroke-miterlimit="10"/>
<path d="M61.4736 12.9975V7.0025H62.2647V12.9975H61.4736Z" fill="white" stroke="white" stroke-width="0.123077" stroke-miterlimit="10"/>
<path d="M65.7707 12.9975H64.9848V7.73875H63.2617V7.0025H67.4938V7.73875H65.7707V12.9975Z" fill="white" stroke="white" stroke-width="0.123077" stroke-miterlimit="10"/>
<path d="M75.4964 12.2262C74.89 12.8325 74.1387 13.135 73.2425 13.135C72.3412 13.135 71.59 12.8325 70.9836 12.2262C70.3784 11.6212 70.0771 10.8787 70.0771 9.99999C70.0771 9.12124 70.3784 8.37874 70.9836 7.77374C71.59 7.16749 72.3412 6.86499 73.2425 6.86499C74.1336 6.86499 74.8848 7.16749 75.4913 7.77874C76.1015 8.38874 76.4028 9.12624 76.4028 9.99999C76.4028 10.8787 76.1015 11.6212 75.4964 12.2262ZM71.5695 11.7237C72.0259 12.1725 72.581 12.3975 73.2425 12.3975C73.8989 12.3975 74.4592 12.1725 74.9105 11.7237C75.3656 11.275 75.5964 10.6987 75.5964 9.99999C75.5964 9.30124 75.3656 8.72499 74.9105 8.27624C74.4592 7.82749 73.8989 7.60249 73.2425 7.60249C72.581 7.60249 72.0259 7.82749 71.5695 8.27624C71.1143 8.72499 70.8836 9.30124 70.8836 9.99999C70.8836 10.6987 71.1143 11.275 71.5695 11.7237Z" fill="white" stroke="white" stroke-width="0.123077" stroke-miterlimit="10"/>
<path d="M77.5146 12.9975V7.0025H78.4762L81.4659 11.665H81.5005L81.4659 10.5125V7.0025H82.257V12.9975H81.4313L78.3005 8.105H78.2659L78.3005 9.2625V12.9975H77.5146Z" fill="white" stroke="white" stroke-width="0.123077" stroke-miterlimit="10"/>
<path d="M69.8815 21.7525C67.4726 21.7525 65.5046 23.54 65.5046 26.0063C65.5046 28.4525 67.4726 30.2588 69.8815 30.2588C72.2956 30.2588 74.2636 28.4525 74.2636 26.0063C74.2636 23.54 72.2956 21.7525 69.8815 21.7525ZM69.8815 28.5838C68.5597 28.5838 67.4226 27.52 67.4226 26.0063C67.4226 24.4725 68.5597 23.4275 69.8815 23.4275C71.2033 23.4275 72.3456 24.4725 72.3456 26.0063C72.3456 27.52 71.2033 28.5838 69.8815 28.5838ZM60.3315 21.7525C57.9174 21.7525 55.9546 23.54 55.9546 26.0063C55.9546 28.4525 57.9174 30.2588 60.3315 30.2588C62.7443 30.2588 64.7085 28.4525 64.7085 26.0063C64.7085 23.54 62.7443 21.7525 60.3315 21.7525ZM60.3315 28.5838C59.0085 28.5838 57.8674 27.52 57.8674 26.0063C57.8674 24.4725 59.0085 23.4275 60.3315 23.4275C61.6533 23.4275 62.7905 24.4725 62.7905 26.0063C62.7905 27.52 61.6533 28.5838 60.3315 28.5838ZM48.9674 23.0563V24.8638H53.3944C53.2649 25.8738 52.9187 26.6163 52.3879 27.1338C51.7418 27.7588 50.7354 28.4525 48.9674 28.4525C46.2431 28.4525 44.1097 26.3088 44.1097 23.6525C44.1097 20.9963 46.2431 18.8525 48.9674 18.8525C50.4405 18.8525 51.5123 19.4138 52.3033 20.1413L53.6097 18.8675C52.5033 17.8375 51.0315 17.0463 48.9674 17.0463C45.2315 17.0463 42.0918 20.01 42.0918 23.6525C42.0918 27.295 45.2315 30.2588 48.9674 30.2588C50.9867 30.2588 52.5033 29.6138 53.6956 28.4038C54.9174 27.2125 55.2982 25.5375 55.2982 24.185C55.2982 23.765 55.2623 23.3788 55.1982 23.0563H48.9674ZM95.4367 24.4575C95.0764 23.5063 93.9649 21.7525 91.7008 21.7525C89.4572 21.7525 87.5892 23.4763 87.5892 26.0063C87.5892 28.3888 89.4379 30.2588 91.9161 30.2588C93.92 30.2588 95.0764 29.0675 95.552 28.3738L94.0649 27.4075C93.5687 28.115 92.8931 28.5838 91.9161 28.5838C90.9456 28.5838 90.2495 28.15 89.8033 27.295L95.6379 24.9413L95.4367 24.4575ZM89.4879 25.8738C89.4379 24.2338 90.7943 23.3938 91.7661 23.3938C92.5277 23.3938 93.1738 23.765 93.3892 24.2963L89.4879 25.8738ZM84.7456 30H86.6636V17.5H84.7456V30ZM81.6046 22.7H81.5405C81.1097 22.2025 80.2879 21.7525 79.2469 21.7525C77.0623 21.7525 75.0649 23.6225 75.0649 26.02C75.0649 28.4038 77.0623 30.2588 79.2469 30.2588C80.2879 30.2588 81.1097 29.805 81.5405 29.2925H81.6046V29.9025C81.6046 31.5288 80.7136 32.4025 79.2764 32.4025C78.1046 32.4025 77.3777 31.5775 77.0777 30.8838L75.4097 31.5625C75.8905 32.69 77.1636 34.0775 79.2764 34.0775C81.5251 34.0775 83.4225 32.7875 83.4225 29.6488V22.0113H81.6046V22.7ZM79.411 28.5838C78.0892 28.5838 76.9828 27.505 76.9828 26.02C76.9828 24.5213 78.0892 23.4275 79.411 23.4275C80.7136 23.4275 81.7405 24.5213 81.7405 26.02C81.7405 27.505 80.7136 28.5838 79.411 28.5838ZM104.416 17.5H99.8289V30H101.742V25.2638H104.416C106.54 25.2638 108.624 23.765 108.624 21.3813C108.624 18.9988 106.535 17.5 104.416 17.5ZM104.466 23.525H101.742V19.2388H104.466C105.894 19.2388 106.71 20.395 106.71 21.3813C106.71 22.3488 105.894 23.525 104.466 23.525ZM116.29 21.7288C114.908 21.7288 113.471 22.3238 112.88 23.6425L114.578 24.3363C114.943 23.6425 115.615 23.4175 116.325 23.4175C117.317 23.4175 118.324 23.9988 118.339 25.025V25.1563C117.993 24.9613 117.252 24.6725 116.34 24.6725C114.512 24.6725 112.649 25.6538 112.649 27.485C112.649 29.16 114.147 30.2388 115.83 30.2388C117.117 30.2388 117.828 29.6725 118.274 29.0138H118.339V29.98H120.187V25.185C120.187 22.9688 118.489 21.7288 116.29 21.7288ZM116.06 28.5788C115.434 28.5788 114.562 28.2763 114.562 27.52C114.562 26.5525 115.649 26.1813 116.59 26.1813C117.433 26.1813 117.828 26.3625 118.339 26.6013C118.189 27.7588 117.167 28.5788 116.06 28.5788ZM126.917 22.0025L124.719 27.4213H124.653L122.38 22.0025H120.317L123.733 29.575L121.784 33.7888H123.783L129.046 22.0025H126.917ZM109.675 30H111.593V17.5H109.675V30Z" fill="white"/>
</g>
<path d="M10 39.375H128.462C133.639 39.3748 137.837 35.1775 137.837 30V10C137.837 4.82246 133.639 0.625201 128.462 0.625H10C4.82233 0.625 0.625001 4.82233 0.625 10V30C0.625 35.1777 4.82233 39.375 10 39.375Z" stroke="#D0D0D0"/>
<defs>
<linearGradient id="paint0_linear_4725_1315" x1="22.3583" y1="31.2902" x2="5.58127" y2="14.083" gradientUnits="userSpaceOnUse">
<stop stop-color="#00A0FF"/>
<stop offset="0.0066" stop-color="#00A1FF"/>
<stop offset="0.2601" stop-color="#00BEFF"/>
<stop offset="0.5122" stop-color="#00D2FF"/>
<stop offset="0.7604" stop-color="#00DFFF"/>
<stop offset="1" stop-color="#00E3FF"/>
</linearGradient>
<linearGradient id="paint1_linear_4725_1315" x1="34.7021" y1="19.9986" x2="9.88474" y2="19.9986" gradientUnits="userSpaceOnUse">
<stop stop-color="#FFE000"/>
<stop offset="0.4087" stop-color="#FFBD00"/>
<stop offset="0.7754" stop-color="#FFA500"/>
<stop offset="1" stop-color="#FF9C00"/>
</linearGradient>
<linearGradient id="paint2_linear_4725_1315" x1="25.4632" y1="17.7039" x2="2.71217" y2="-5.63049" gradientUnits="userSpaceOnUse">
<stop stop-color="#FF3A44"/>
<stop offset="1" stop-color="#C31162"/>
</linearGradient>
<linearGradient id="paint3_linear_4725_1315" x1="7.484" y1="39.8238" x2="17.6433" y2="29.4041" gradientUnits="userSpaceOnUse">
<stop stop-color="#32A071"/>
<stop offset="0.0685" stop-color="#2DA771"/>
<stop offset="0.4762" stop-color="#15CF74"/>
<stop offset="0.8009" stop-color="#06E775"/>
<stop offset="1" stop-color="#00F076"/>
</linearGradient>
<clipPath id="clip0_4725_1315">
<path d="M0 30C0 35.5228 4.47715 40 10 40H128.462C133.984 40 138.462 35.5228 138.462 30V10C138.462 4.47716 133.984 2.38419e-06 128.462 2.38419e-06H9.99999C4.47715 2.38419e-06 0 4.47716 0 10V30Z" fill="white"/>
</clipPath>
</defs>
</svg>
