<svg width="122" height="38" viewBox="0 0 122 38" fill="none" xmlns="http://www.w3.org/2000/svg">
<path d="M116.556 37H5.44444C2.95556 37 1 35.02 1 32.5V5.5C1 2.98 2.95556 1 5.44444 1H116.556C119.044 1 121 2.98 121 5.5V32.5C121 35.02 119.044 37 116.556 37Z" fill="#12121B" stroke="#5D5E68"/>
<path fill-rule="evenodd" clip-rule="evenodd" d="M42.5109 11.98C42.9554 11.53 43.1331 10.9 43.1331 10.18V9.82H40.5554V10.54H42.5109C42.5109 10.99 42.3331 11.35 42.0665 11.62C41.622 12.07 41.1776 12.25 40.5554 12.25C40.022 12.25 39.5776 11.98 39.1331 11.62C38.6887 11.26 38.5109 10.72 38.5109 10.09C38.5109 9.46 38.6887 8.92 39.1331 8.56C39.4887 8.11 40.022 7.93 40.5554 7.93C41.1776 7.93 41.622 8.11 41.9776 8.56L42.422 8.11C42.2442 7.84 41.9776 7.66 41.622 7.48C41.2665 7.3 40.9109 7.21 40.5554 7.21C39.7554 7.21 39.1331 7.48 38.5998 8.02C38.0665 8.56 37.7998 9.19 37.7998 10C37.7998 10.81 38.0665 11.44 38.5998 11.98C39.1331 12.52 39.7554 12.79 40.5554 12.79C41.3554 12.79 41.9776 12.52 42.5109 11.98ZM44.822 7.93H47.222V7.3H44.1109V12.7H47.222V11.98H44.822V10.27H47.0442V9.64H44.822V7.93ZM50.1554 12.7H49.4442V7.93H47.9331V7.3H51.6665V7.93H50.1554V12.7ZM54.2442 7.3V12.7H54.9554V7.3H54.2442ZM57.8887 12.7H57.2665V7.93H55.7554V7.3H59.3998V7.93H57.8887V12.7ZM64.4665 12.79C65.2665 12.79 65.8887 12.52 66.422 11.98C66.9554 11.44 67.222 10.81 67.222 10C67.222 9.19 66.9554 8.56 66.422 8.02C65.8887 7.48 65.2665 7.21 64.4665 7.21C63.6665 7.21 63.0443 7.48 62.5109 8.02C61.9776 8.56 61.7109 9.19 61.7109 10C61.7109 10.81 61.9776 11.44 62.5109 11.98C63.0443 12.52 63.6665 12.79 64.4665 12.79ZM63.0443 11.53C63.3998 11.89 63.9331 12.16 64.4665 12.16C64.9998 12.16 65.5331 11.98 65.8887 11.53C66.2442 11.17 66.5109 10.63 66.5109 10C66.5109 9.37 66.3331 8.83 65.8887 8.47C65.5331 8.11 64.9998 7.84 64.4665 7.84C63.9331 7.84 63.3998 8.02 63.0443 8.47C62.6887 8.83 62.422 9.37 62.422 10C62.422 10.63 62.5998 11.17 63.0443 11.53ZM68.1998 7.3V12.7H68.822V8.29L71.5776 12.7H72.2887V7.3H71.5776V11.53L68.9998 7.3H68.1998Z" fill="white"/>
<path fill-rule="evenodd" clip-rule="evenodd" d="M43.3999 21.79V23.41H47.2221C47.1332 24.31 46.7776 25.03 46.3332 25.48C45.7999 26.02 44.911 26.65 43.3999 26.65C40.9999 26.65 39.2221 24.76 39.2221 22.33C39.2221 19.9 41.0888 18.01 43.3999 18.01C44.6443 18.01 45.6221 18.55 46.3332 19.18L47.4888 18.01C46.511 17.11 45.2665 16.39 43.4888 16.39C40.2888 16.39 37.5332 19.09 37.5332 22.33C37.5332 25.57 40.2888 28.27 43.4888 28.27C45.2665 28.27 46.511 27.73 47.5776 26.56C48.6443 25.48 48.9999 23.95 48.9999 22.78V22.78C48.9999 22.42 48.9999 22.06 48.911 21.79H43.3999ZM53.2665 20.62C51.1332 20.62 49.4443 22.24 49.4443 24.49C49.4443 26.65 51.1332 28.36 53.2665 28.36C55.3999 28.36 57.0888 26.74 57.0888 24.49C57.0888 22.15 55.3999 20.62 53.2665 20.62ZM57.711 24.49C57.711 22.24 59.3999 20.62 61.5332 20.62C63.6665 20.62 65.3554 22.15 65.3554 24.49C65.3554 26.74 63.6665 28.36 61.5332 28.36C59.3999 28.36 57.711 26.65 57.711 24.49ZM59.3999 24.4C59.3999 25.75 60.3776 26.74 61.5332 26.74C62.6888 26.74 63.6665 25.75 63.6665 24.4C63.6665 22.96 62.6888 22.06 61.5332 22.06C60.3776 22.06 59.3999 23.05 59.3999 24.4ZM51.1332 24.4C51.1332 25.75 52.111 26.74 53.2665 26.74C54.4221 26.74 55.3999 25.75 55.3999 24.4C55.3999 22.96 54.4221 22.06 53.2665 22.06C52.111 22.06 51.1332 23.05 51.1332 24.4ZM80.5554 20.62C82.511 20.62 83.3999 22.15 83.7554 23.05L83.9332 23.5L78.8665 25.66C79.311 26.47 79.8443 26.83 80.7332 26.83C81.6221 26.83 82.1554 26.38 82.5999 25.75L83.8443 26.65C83.4888 27.28 82.4221 28.36 80.7332 28.36C78.5999 28.36 76.9999 26.65 76.9999 24.49C76.9999 22.15 78.5999 20.62 80.5554 20.62ZM78.5999 24.31C78.5999 22.87 79.7554 22.06 80.5554 22.06C81.1776 22.06 81.7999 22.42 81.9776 22.87L78.5999 24.31ZM76.111 28H74.4221V16.75H76.111V28ZM71.7554 21.43C71.311 20.98 70.5999 20.53 69.711 20.53C67.8443 20.53 66.0665 22.24 66.0665 24.4C66.0665 26.56 67.7554 28.18 69.711 28.18C70.5999 28.18 71.311 27.73 71.6665 27.28H71.7554V27.82C71.7554 29.26 70.9554 30.07 69.711 30.07C68.7332 30.07 68.0221 29.35 67.8443 28.72L66.4221 29.35C66.8665 30.34 67.9332 31.6 69.7999 31.6C71.7554 31.6 73.3554 30.43 73.3554 27.64V20.8H71.7554V21.43ZM67.6665 24.4C67.6665 25.75 68.6443 26.74 69.7999 26.74C70.9554 26.74 71.8443 25.75 71.8443 24.4C71.8443 23.05 70.9554 22.06 69.7999 22.06C68.6443 22.06 67.6665 23.05 67.6665 24.4ZM91.4888 16.75H87.4888V28H89.1776V23.77H91.4888C93.3554 23.77 95.1332 22.42 95.1332 20.26C95.1332 18.1 93.3554 16.75 91.4888 16.75ZM89.1776 22.15H91.5776C92.7332 22.15 93.4443 21.16 93.5332 20.17C93.5332 19.36 92.8221 18.28 91.5776 18.28H89.1776V22.15ZM101.8 20.53C100.555 20.53 99.311 21.07 98.8665 22.24L100.378 22.87C100.733 22.24 101.267 22.06 101.889 22.06C102.778 22.06 103.578 22.6 103.667 23.5V23.59C103.4 23.41 102.689 23.14 101.978 23.14C100.378 23.14 98.7776 24.04 98.7776 25.66C98.7776 27.19 100.111 28.18 101.533 28.18C102.689 28.18 103.222 27.64 103.667 27.1H103.755V28H105.355V23.68C105.178 21.7 103.667 20.53 101.8 20.53ZM100.289 25.75C100.289 26.47 101.089 26.74 101.622 26.74C102.511 26.74 103.4 26.02 103.578 24.94C103.533 24.9218 103.489 24.9036 103.445 24.8856C103.058 24.7255 102.706 24.58 102.067 24.58C101.267 24.58 100.289 24.85 100.289 25.75ZM110.955 20.8L109.089 25.66H109L107.044 20.8H105.267L108.2 27.64L106.511 31.42H108.2L112.733 20.8H110.955ZM97.711 28H96.0221V16.75H97.711V28Z" fill="white"/>
<path d="M10.2442 7.75C9.97756 8.02 9.88867 8.47 9.88867 9.01V28.9C9.88867 29.44 10.0664 29.89 10.3331 30.16L10.422 30.25L21.4442 19.09V18.91L10.2442 7.75Z" fill="url(#paint0_linear_183_3796)"/>
<path d="M24.9999 22.87L21.3555 19.18V18.91L24.9999 15.22L25.0888 15.31L29.4444 17.83C30.6888 18.55 30.6888 19.72 29.4444 20.44L24.9999 22.87Z" fill="url(#paint1_linear_183_3796)"/>
<path d="M25.0886 22.78L21.3553 19L10.2441 30.25C10.6886 30.7 11.3108 30.7 12.1108 30.34L25.0886 22.78" fill="url(#paint2_linear_183_3796)"/>
<path d="M25.0886 15.22L12.1108 7.75C11.3108 7.3 10.6886 7.39 10.2441 7.84L21.3553 19L25.0886 15.22Z" fill="url(#paint3_linear_183_3796)"/>
<path opacity="0.2" d="M24.9997 22.69L12.1108 30.07C11.3997 30.52 10.7775 30.43 10.333 30.07L10.2441 30.16L10.333 30.25C10.7775 30.61 11.3997 30.7 12.1108 30.25L24.9997 22.69Z" fill="#12121B"/>
<path opacity="0.12" fill-rule="evenodd" clip-rule="evenodd" d="M24.9998 22.69L29.4442 20.17C29.9776 19.81 30.3331 19.45 30.3331 19C30.3331 19.45 30.0665 19.9 29.4442 20.26L25.0887 22.78L24.9998 22.69ZM9.90471 29.1763C9.94056 29.5525 10.0405 29.8638 10.2442 30.07H10.2529C10.2786 30.1019 10.3054 30.1319 10.3331 30.16V30.07H10.2529C10.0749 29.8494 9.94779 29.5403 9.90471 29.1763ZM9.90471 29.1763C9.89363 29.06 9.88867 28.9375 9.88867 28.81V28.9C9.88867 28.9951 9.89418 29.0873 9.90471 29.1763Z" fill="#12121B"/>
<path opacity="0.25" d="M12.1109 7.84L29.4442 17.83C29.9776 18.19 30.3331 18.55 30.3331 19C30.3331 18.55 30.0664 18.1 29.4442 17.74L12.1109 7.75C10.8664 7.03 9.88867 7.57 9.88867 9.01V9.1C9.88867 7.75 10.8664 7.12 12.1109 7.84Z" fill="white"/>
<defs>
<linearGradient id="paint0_linear_183_3796" x1="16.4991" y1="-5.68475" x2="-1.19103" y2="-0.960686" gradientUnits="userSpaceOnUse">
<stop stop-color="#00A0FF"/>
<stop offset="0.007" stop-color="#00A1FF"/>
<stop offset="0.26" stop-color="#00BEFF"/>
<stop offset="0.512" stop-color="#00D2FF"/>
<stop offset="0.76" stop-color="#00DFFF"/>
<stop offset="1" stop-color="#00E3FF"/>
</linearGradient>
<linearGradient id="paint1_linear_183_3796" x1="31.0746" y1="9.88233" x2="9.56614" y2="9.88233" gradientUnits="userSpaceOnUse">
<stop stop-color="#FFE000"/>
<stop offset="0.409" stop-color="#FFBD00"/>
<stop offset="0.775" stop-color="#FFA500"/>
<stop offset="1" stop-color="#FF9C00"/>
</linearGradient>
<linearGradient id="paint2_linear_183_3796" x1="9.96232" y1="13.1626" x2="-4.49075" y2="37.1283" gradientUnits="userSpaceOnUse">
<stop stop-color="#FF3A44"/>
<stop offset="1" stop-color="#C31162"/>
</linearGradient>
<linearGradient id="paint3_linear_183_3796" x1="1.60599" y1="4.67159" x2="8.00988" y2="15.3896" gradientUnits="userSpaceOnUse">
<stop stop-color="#32A071"/>
<stop offset="0.069" stop-color="#2DA771"/>
<stop offset="0.476" stop-color="#15CF74"/>
<stop offset="0.801" stop-color="#06E775"/>
<stop offset="1" stop-color="#00F076"/>
</linearGradient>
</defs>
</svg>
