<svg width="139" height="40" viewBox="0 0 139 40" fill="none" xmlns="http://www.w3.org/2000/svg">
<g clip-path="url(#clip0_4725_1334)">
<path d="M137.693 35.3869C137.693 37.5186 135.93 39.2453 133.75 39.2453H4.71755C2.53838 39.2453 0.769531 37.5186 0.769531 35.3869V4.61806C0.769531 2.48742 2.53838 0.7547 4.71755 0.7547H133.749C135.93 0.7547 137.692 2.48742 137.692 4.61806L137.693 35.3869Z" fill="black"/>
<path d="M133.333 0.801252C135.708 0.801252 137.64 2.685 137.64 5V35C137.64 37.315 135.708 39.1988 133.333 39.1988H5.12821C2.75385 39.1988 0.821795 37.315 0.821795 35V5C0.821795 2.685 2.75385 0.801252 5.12821 0.801252H133.333ZM133.333 2.11397e-06H5.12821C2.30897 2.11397e-06 0 2.25125 0 5V35C0 37.7487 2.30897 40 5.12821 40H133.333C136.153 40 138.462 37.7487 138.462 35V5C138.462 2.25125 136.153 2.11397e-06 133.333 2.11397e-06Z" fill="#A6A6A6"/>
<path d="M30.9007 19.784C30.871 16.561 33.6074 14.993 33.7325 14.92C32.1828 12.717 29.7807 12.416 28.9366 12.392C26.9192 12.185 24.9623 13.569 23.9346 13.569C22.8864 13.569 21.3038 12.412 19.5982 12.446C17.4033 12.479 15.35 13.718 14.2238 15.642C11.8997 19.565 13.633 25.33 15.8597 28.501C16.9735 30.054 18.2751 31.788 19.9787 31.727C21.6453 31.66 22.2679 30.691 24.2792 30.691C26.272 30.691 26.8566 31.727 28.5941 31.688C30.3828 31.66 31.5089 30.128 32.5838 28.561C33.871 26.781 34.3879 25.028 34.4084 24.938C34.3664 24.924 30.9346 23.647 30.9007 19.784Z" fill="white"/>
<path d="M27.6187 10.306C28.5151 9.21298 29.1284 7.72598 28.9582 6.21698C27.6607 6.27298 26.0382 7.09198 25.1038 8.16098C24.2771 9.10298 23.5387 10.647 23.7294 12.099C25.1869 12.205 26.6833 11.382 27.6187 10.306Z" fill="white"/>
<path d="M50.3077 10.009C50.3077 11.186 49.9456 12.072 49.2226 12.667C48.5528 13.216 47.601 13.491 46.3682 13.491C45.7569 13.491 45.2338 13.465 44.7959 13.413V6.98201C45.3672 6.89201 45.9826 6.84601 46.6472 6.84601C47.8215 6.84601 48.7067 7.09501 49.3036 7.59301C49.9723 8.15601 50.3077 8.96101 50.3077 10.009ZM49.1744 10.038C49.1744 9.27501 48.9672 8.69001 48.5528 8.28201C48.1385 7.87501 47.5333 7.67101 46.7364 7.67101C46.398 7.67101 46.1097 7.69301 45.8708 7.73901V12.628C46.0031 12.648 46.2451 12.657 46.5969 12.657C47.4195 12.657 48.0544 12.434 48.5015 11.988C48.9487 11.542 49.1744 10.892 49.1744 10.038Z" fill="white"/>
<path d="M56.3174 11.037C56.3174 11.762 56.1051 12.356 55.6805 12.822C55.2354 13.301 54.6456 13.54 53.9092 13.54C53.1995 13.54 52.6343 13.311 52.2128 12.851C51.7923 12.392 51.582 11.813 51.582 11.115C51.582 10.385 51.7984 9.78605 52.2333 9.32105C52.6682 8.85605 53.2528 8.62305 53.9892 8.62305C54.699 8.62305 55.2692 8.85205 55.701 9.31105C56.1113 9.75705 56.3174 10.333 56.3174 11.037ZM55.2025 11.071C55.2025 10.636 55.1061 10.263 54.9143 9.95205C54.6887 9.57605 54.3677 9.38805 53.9502 9.38805C53.5184 9.38805 53.1902 9.57605 52.9646 9.95205C52.7718 10.263 52.6764 10.642 52.6764 11.09C52.6764 11.525 52.7728 11.898 52.9646 12.209C53.1974 12.585 53.5215 12.773 53.94 12.773C54.3502 12.773 54.6723 12.582 54.9041 12.199C55.1031 11.882 55.2025 11.506 55.2025 11.071Z" fill="white"/>
<path d="M64.3743 8.71899L62.8614 13.433H61.8768L61.2502 11.386C61.0912 10.875 60.962 10.367 60.8614 9.86299H60.842C60.7486 10.381 60.6194 10.888 60.4532 11.386L59.7876 13.433H58.7917L57.3691 8.71899H58.4738L59.0204 10.96C59.1527 11.49 59.2614 11.995 59.3486 12.473H59.3681C59.4481 12.079 59.5804 11.577 59.7671 10.97L60.4532 8.71999H61.3291L61.9866 10.922C62.1455 11.459 62.2748 11.976 62.3743 12.474H62.404C62.4768 11.989 62.5866 11.472 62.7322 10.922L63.3189 8.71999H64.3743V8.71899Z" fill="white"/>
<path d="M69.9469 13.4331H68.8721V10.7331C68.8721 9.90106 68.5479 9.48506 67.8977 9.48506C67.5787 9.48506 67.3213 9.59906 67.1213 9.82806C66.9233 10.0571 66.8228 10.3271 66.8228 10.6361V13.4321H65.748V10.0661C65.748 9.65206 65.7346 9.20306 65.709 8.71706H66.6536L66.7039 9.45406H66.7336C66.8587 9.22506 67.0454 9.03606 67.2905 8.88506C67.5818 8.70906 67.908 8.62006 68.2649 8.62006C68.7162 8.62006 69.0915 8.76206 69.39 9.04706C69.7613 9.39606 69.9469 9.91706 69.9469 10.6091V13.4331Z" fill="white"/>
<path d="M72.9108 13.433H71.8369V6.55603H72.9108V13.433Z" fill="white"/>
<path d="M79.2393 11.037C79.2393 11.762 79.027 12.356 78.6024 12.822C78.1572 13.301 77.5665 13.54 76.8311 13.54C76.1203 13.54 75.5552 13.311 75.1347 12.851C74.7142 12.392 74.5039 11.813 74.5039 11.115C74.5039 10.385 74.7203 9.78605 75.1552 9.32105C75.5901 8.85605 76.1747 8.62305 76.9101 8.62305C77.6208 8.62305 78.1901 8.85205 78.6229 9.31105C79.0331 9.75705 79.2393 10.333 79.2393 11.037ZM78.1234 11.071C78.1234 10.636 78.027 10.263 77.8352 9.95205C77.6106 9.57605 77.2885 9.38805 76.8721 9.38805C76.4393 9.38805 76.1111 9.57605 75.8865 9.95205C75.6936 10.263 75.5983 10.642 75.5983 11.09C75.5983 11.525 75.6947 11.898 75.8865 12.209C76.1193 12.585 76.4434 12.773 76.8619 12.773C77.2721 12.773 77.5931 12.582 77.8249 12.199C78.0249 11.882 78.1234 11.506 78.1234 11.071Z" fill="white"/>
<path d="M84.4409 13.433H83.4758L83.3958 12.89H83.366C83.0358 13.323 82.565 13.54 81.9537 13.54C81.4973 13.54 81.1281 13.397 80.8501 13.113C80.5978 12.855 80.4717 12.534 80.4717 12.153C80.4717 11.577 80.7178 11.138 81.2132 10.834C81.7076 10.53 82.403 10.381 83.2983 10.388V10.3C83.2983 9.67905 82.964 9.36905 82.2942 9.36905C81.8173 9.36905 81.3968 9.48605 81.0337 9.71805L80.8153 9.03005C81.2645 8.75905 81.8194 8.62305 82.4737 8.62305C83.7373 8.62305 84.3712 9.27305 84.3712 10.573V12.309C84.3712 12.78 84.3948 13.155 84.4409 13.433ZM83.325 11.813V11.086C82.1394 11.066 81.5466 11.383 81.5466 12.036C81.5466 12.282 81.6142 12.466 81.7527 12.589C81.8912 12.712 82.0676 12.773 82.2778 12.773C82.5137 12.773 82.7342 12.7 82.9353 12.555C83.1373 12.409 83.2614 12.224 83.3076 11.997C83.3189 11.946 83.325 11.884 83.325 11.813Z" fill="white"/>
<path d="M90.549 13.433H89.5951L89.5449 12.676H89.5151C89.2105 13.252 88.6915 13.54 87.9623 13.54C87.3797 13.54 86.8946 13.317 86.51 12.871C86.1254 12.425 85.9336 11.846 85.9336 11.135C85.9336 10.372 86.1418 9.75403 86.5603 9.28203C86.9654 8.84203 87.4618 8.62203 88.0526 8.62203C88.7018 8.62203 89.1562 8.83503 89.4146 9.26203H89.4351V6.55603H90.511V12.163C90.511 12.622 90.5233 13.045 90.549 13.433ZM89.4351 11.445V10.659C89.4351 10.523 89.4249 10.413 89.4054 10.329C89.3449 10.077 89.2146 9.86503 89.0167 9.69403C88.8167 9.52303 88.5756 9.43703 88.2977 9.43703C87.8967 9.43703 87.5828 9.59203 87.352 9.90303C87.1233 10.214 87.0074 10.611 87.0074 11.096C87.0074 11.562 87.1172 11.94 87.3377 12.231C87.5705 12.541 87.8844 12.696 88.2772 12.696C88.63 12.696 88.9121 12.567 89.1264 12.308C89.3336 12.069 89.4351 11.781 89.4351 11.445Z" fill="white"/>
<path d="M99.7412 11.037C99.7412 11.762 99.5289 12.356 99.1043 12.822C98.6592 13.301 98.0705 13.54 97.333 13.54C96.6243 13.54 96.0592 13.311 95.6366 12.851C95.2161 12.392 95.0059 11.813 95.0059 11.115C95.0059 10.385 95.2223 9.78605 95.6571 9.32105C96.092 8.85605 96.6766 8.62305 97.4141 8.62305C98.1228 8.62305 98.6941 8.85205 99.1248 9.31105C99.5351 9.75705 99.7412 10.333 99.7412 11.037ZM98.6274 11.071C98.6274 10.636 98.531 10.263 98.3392 9.95205C98.1125 9.57605 97.7925 9.38805 97.3741 9.38805C96.9433 9.38805 96.6151 9.57605 96.3884 9.95205C96.1956 10.263 96.1002 10.642 96.1002 11.09C96.1002 11.525 96.1966 11.898 96.3884 12.209C96.6212 12.585 96.9453 12.773 97.3638 12.773C97.7741 12.773 98.0971 12.582 98.3289 12.199C98.5269 11.882 98.6274 11.506 98.6274 11.071Z" fill="white"/>
<path d="M105.521 13.4331H104.447V10.7331C104.447 9.90106 104.123 9.48506 103.472 9.48506C103.153 9.48506 102.895 9.59906 102.696 9.82806C102.498 10.0571 102.398 10.3271 102.398 10.6361V13.4321H101.322V10.0661C101.322 9.65206 101.31 9.20306 101.284 8.71706H102.228L102.278 9.45406H102.308C102.434 9.22506 102.621 9.03606 102.865 8.88506C103.157 8.70906 103.482 8.62006 103.84 8.62006C104.29 8.62006 104.666 8.76206 104.964 9.04706C105.336 9.39606 105.521 9.91706 105.521 10.6091V13.4331Z" fill="white"/>
<path d="M112.755 9.50404H111.572V11.794C111.572 12.376 111.782 12.667 112.198 12.667C112.391 12.667 112.551 12.651 112.677 12.618L112.705 13.413C112.493 13.491 112.214 13.53 111.87 13.53C111.445 13.53 111.115 13.404 110.876 13.152C110.636 12.9 110.517 12.476 110.517 11.881V9.50404H109.811V8.71904H110.517V7.85504L111.571 7.54504V8.71804H112.754V9.50404H112.755Z" fill="white"/>
<path d="M118.445 13.433H117.369V10.753C117.369 9.90803 117.045 9.48503 116.396 9.48503C115.897 9.48503 115.557 9.73003 115.37 10.22C115.338 10.323 115.32 10.449 115.32 10.597V13.432H114.246V6.55603H115.32V9.39703H115.34C115.679 8.88003 116.164 8.62203 116.793 8.62203C117.238 8.62203 117.606 8.76403 117.898 9.04903C118.263 9.40403 118.445 9.93203 118.445 10.63V13.433Z" fill="white"/>
<path d="M124.315 10.853C124.315 11.041 124.301 11.199 124.275 11.328H121.051C121.066 11.794 121.22 12.149 121.518 12.395C121.791 12.615 122.143 12.725 122.574 12.725C123.05 12.725 123.485 12.651 123.877 12.502L124.045 13.23C123.587 13.424 123.047 13.521 122.423 13.521C121.674 13.521 121.084 13.306 120.658 12.876C120.229 12.446 120.017 11.869 120.017 11.145C120.017 10.434 120.215 9.84201 120.614 9.37001C121.03 8.86601 121.593 8.61401 122.304 8.61401C122.999 8.61401 123.527 8.86601 123.884 9.37001C124.172 9.77001 124.315 10.265 124.315 10.853ZM123.289 10.582C123.298 10.271 123.227 10.003 123.081 9.77701C122.895 9.48601 122.61 9.34001 122.226 9.34001C121.875 9.34001 121.589 9.48201 121.37 9.76701C121.192 9.99401 121.086 10.265 121.051 10.582H123.289Z" fill="white"/>
<path d="M55.0211 31.504H52.6919L51.416 27.595H46.9811L45.7657 31.504H43.498L47.8919 18.196H50.6057L55.0211 31.504ZM51.0314 25.955L49.8775 22.48C49.7555 22.125 49.5268 21.289 49.1893 19.973H49.1483C49.0139 20.539 48.7975 21.375 48.5001 22.48L47.3668 25.955H51.0314Z" fill="white"/>
<path d="M66.3197 26.588C66.3197 28.22 65.8674 29.51 64.9628 30.457C64.1526 31.3 63.1464 31.721 61.9454 31.721C60.649 31.721 59.7177 31.267 59.1505 30.359H59.1095V35.414H56.9228V25.067C56.9228 24.041 56.8951 22.988 56.8418 21.908H58.7649L58.8869 23.429H58.928C59.6572 22.283 60.7638 21.711 62.249 21.711C63.41 21.711 64.3792 22.158 65.1546 23.053C65.9321 23.949 66.3197 25.127 66.3197 26.588ZM64.0921 26.666C64.0921 25.732 63.8767 24.962 63.4438 24.356C62.971 23.724 62.3362 23.408 61.5403 23.408C61.0008 23.408 60.5105 23.584 60.0726 23.931C59.6336 24.281 59.3464 24.738 59.2121 25.304C59.1444 25.568 59.1105 25.784 59.1105 25.954V27.554C59.1105 28.252 59.33 28.841 59.769 29.322C60.208 29.803 60.7782 30.043 61.4797 30.043C62.3033 30.043 62.9444 29.733 63.4028 29.115C63.8623 28.496 64.0921 27.68 64.0921 26.666Z" fill="white"/>
<path d="M77.641 26.588C77.641 28.22 77.1887 29.51 76.283 30.457C75.4738 31.3 74.4677 31.721 73.2666 31.721C71.9702 31.721 71.0389 31.267 70.4728 30.359H70.4318V35.414H68.2451V25.067C68.2451 24.041 68.2174 22.988 68.1641 21.908H70.0871L70.2092 23.429H70.2502C70.9784 22.283 72.0851 21.711 73.5712 21.711C74.7312 21.711 75.7005 22.158 76.4779 23.053C77.2523 23.949 77.641 25.127 77.641 26.588ZM75.4133 26.666C75.4133 25.732 75.1969 24.962 74.7641 24.356C74.2912 23.724 73.6584 23.408 72.8615 23.408C72.321 23.408 71.8318 23.584 71.3928 23.931C70.9538 24.281 70.6677 24.738 70.5333 25.304C70.4666 25.568 70.4318 25.784 70.4318 25.954V27.554C70.4318 28.252 70.6512 28.841 71.0882 29.322C71.5271 29.802 72.0974 30.043 72.801 30.043C73.6246 30.043 74.2656 29.733 74.7241 29.115C75.1836 28.496 75.4133 27.68 75.4133 26.666Z" fill="white"/>
<path d="M90.2968 27.772C90.2968 28.904 89.8937 29.825 89.0845 30.536C88.1953 31.313 86.9573 31.701 85.3665 31.701C83.8978 31.701 82.7204 31.425 81.8291 30.872L82.3358 29.095C83.2958 29.661 84.3491 29.945 85.4968 29.945C86.3204 29.945 86.9614 29.763 87.4219 29.401C87.8804 29.039 88.1091 28.553 88.1091 27.947C88.1091 27.407 87.9204 26.952 87.5419 26.583C87.1655 26.214 86.5368 25.871 85.6588 25.554C83.2691 24.685 82.0753 23.412 82.0753 21.738C82.0753 20.644 82.4937 19.747 83.3317 19.049C84.1665 18.35 85.2804 18.001 86.6732 18.001C87.9153 18.001 88.9471 18.212 89.7706 18.633L89.224 20.371C88.4547 19.963 87.585 19.759 86.6117 19.759C85.8424 19.759 85.2414 19.944 84.8106 20.312C84.4465 20.641 84.264 21.042 84.264 21.517C84.264 22.043 84.4722 22.478 84.8906 22.82C85.2547 23.136 85.9163 23.478 86.8763 23.847C88.0506 24.308 88.9132 24.847 89.4681 25.465C90.0209 26.081 90.2968 26.852 90.2968 27.772Z" fill="white"/>
<path d="M97.527 23.508H95.1168V28.167C95.1168 29.352 95.5414 29.944 96.3927 29.944C96.7835 29.944 97.1076 29.911 97.364 29.845L97.4245 31.464C96.9937 31.621 96.4265 31.7 95.724 31.7C94.8604 31.7 94.1855 31.443 93.6983 30.93C93.2132 30.416 92.9691 29.554 92.9691 28.343V23.506H91.5332V21.906H92.9691V20.149L95.1168 19.517V21.906H97.527V23.508Z" fill="white"/>
<path d="M108.402 26.627C108.402 28.102 107.969 29.313 107.105 30.26C106.2 31.235 104.998 31.721 103.499 31.721C102.055 31.721 100.905 31.254 100.048 30.32C99.1904 29.386 98.7617 28.207 98.7617 26.786C98.7617 25.299 99.2027 24.081 100.088 23.134C100.971 22.186 102.163 21.712 103.661 21.712C105.105 21.712 106.267 22.179 107.144 23.114C107.983 24.021 108.402 25.192 108.402 26.627ZM106.133 26.696C106.133 25.811 105.939 25.052 105.546 24.419C105.088 23.653 104.432 23.271 103.583 23.271C102.704 23.271 102.037 23.654 101.578 24.419C101.185 25.053 100.991 25.824 100.991 26.736C100.991 27.621 101.185 28.38 101.578 29.012C102.051 29.778 102.711 30.16 103.564 30.16C104.399 30.16 105.054 29.77 105.527 28.992C105.93 28.347 106.133 27.58 106.133 26.696Z" fill="white"/>
<path d="M115.51 23.783C115.293 23.744 115.063 23.724 114.821 23.724C114.051 23.724 113.456 24.007 113.038 24.574C112.674 25.074 112.491 25.706 112.491 26.469V31.504H110.306L110.326 24.93C110.326 23.824 110.298 22.817 110.244 21.909H112.149L112.229 23.745H112.289C112.52 23.114 112.884 22.606 113.383 22.225C113.87 21.882 114.396 21.711 114.963 21.711C115.165 21.711 115.348 21.725 115.51 21.75V23.783Z" fill="white"/>
<path d="M125.289 26.252C125.289 26.634 125.263 26.956 125.209 27.219H118.649C118.674 28.167 118.991 28.892 119.6 29.392C120.153 29.839 120.868 30.063 121.746 30.063C122.717 30.063 123.604 29.912 124.4 29.609L124.743 31.089C123.812 31.485 122.712 31.682 121.444 31.682C119.917 31.682 118.719 31.244 117.848 30.369C116.978 29.494 116.542 28.319 116.542 26.845C116.542 25.398 116.947 24.193 117.758 23.232C118.608 22.206 119.755 21.693 121.199 21.693C122.618 21.693 123.692 22.206 124.421 23.232C124.998 24.047 125.289 25.055 125.289 26.252ZM123.204 25.699C123.218 25.067 123.075 24.521 122.779 24.06C122.4 23.467 121.819 23.171 121.036 23.171C120.321 23.171 119.74 23.46 119.296 24.04C118.932 24.501 118.715 25.054 118.649 25.698H123.204V25.699Z" fill="white"/>
</g>
<path d="M8 0.5H130.462C134.604 0.500206 137.962 3.85799 137.962 8V32C137.962 36.142 134.604 39.4998 130.462 39.5H8C3.85787 39.5 0.5 36.1421 0.5 32V8C0.5 3.85786 3.85786 0.5 8 0.5Z" stroke="#D0D0D0"/>
<defs>
<clipPath id="clip0_4725_1334">
<path d="M0 8C0 3.58172 3.58172 0 8 0H130.462C134.88 0 138.462 3.58172 138.462 8V32C138.462 36.4183 134.88 40 130.462 40H8.00001C3.58173 40 0 36.4183 0 32V8Z" fill="white"/>
</clipPath>
</defs>
</svg>
