<svg width="48" height="48" viewBox="0 0 48 48" fill="none" xmlns="http://www.w3.org/2000/svg">
<path d="M0 16C0 7.16344 7.16344 0 16 0H32C40.8366 0 48 7.16344 48 16V32C48 40.8366 40.8366 48 32 48H16C7.16344 48 0 40.8366 0 32V16Z" fill="#623508"/>
<path d="M37.0203 10.3233L17.3554 29.9882L16.9982 29.631L36.6631 9.96613L37.0203 10.3233Z" fill="#F9FAFB"/>
<path d="M31.0017 18.369L11.3369 38.0339L10.9797 37.6767L30.6445 18.0118L31.0017 18.369Z" fill="#F9FAFB"/>
<path d="M33.8582 17.5393L14.1933 37.2042L13.8361 36.847L33.501 17.1821L33.8582 17.5393Z" fill="#F9FAFB"/>
<path d="M32.8875 12.429L13.2226 32.0939L12.8654 31.7367L32.5303 12.0718L32.8875 12.429Z" fill="#F9FAFB"/>
<path d="M37.677 37.0205L18.0121 17.3556L18.3693 16.9984L38.0342 36.6633L37.677 37.0205Z" fill="#F9FAFB"/>
<path d="M29.6311 31.0016L9.96625 11.3368L10.3234 10.9796L29.9883 30.6444L29.6311 31.0016Z" fill="#F9FAFB"/>
<path d="M30.4612 33.8582L10.7963 14.1933L11.1535 13.8361L30.8184 33.501L30.4612 33.8582Z" fill="#F9FAFB"/>
<path d="M35.5705 32.8879L15.9057 13.223L16.2629 12.8658L35.9277 32.5307L35.5705 32.8879Z" fill="#F9FAFB"/>
</svg>
