<svg width="122" height="38" viewBox="0 0 122 38" fill="none" xmlns="http://www.w3.org/2000/svg">
<path d="M120.981 33.398C120.981 35.3923 119.443 37 117.536 37H4.46416C2.55692 37 1 35.3923 1 33.398V4.62239C1 2.62804 2.55692 1 4.46416 1H117.536C119.443 1 121 2.60769 121 4.62239L120.981 33.398V33.398Z" fill="#12121B" stroke="#5D5E68"/>
<path fill-rule="evenodd" clip-rule="evenodd" d="M25.6189 6.02657C25.7746 7.4511 25.2297 8.83493 24.4512 9.87281C23.6339 10.8903 22.3105 11.6636 21.026 11.5619C20.8508 10.1984 21.5125 8.75353 22.2326 7.85811C23.05 6.86094 24.4707 6.08762 25.6189 6.02657ZM29.8224 14.2278C29.7056 14.2889 27.3118 15.7744 27.3313 18.8067C27.3702 22.4494 30.3867 23.6501 30.3867 23.6501C30.3673 23.7315 29.9197 25.4002 28.7909 27.069C27.8567 28.5545 26.8642 29.9994 25.2878 30.0198C24.533 30.0398 24.0268 29.8145 23.4998 29.58C22.9533 29.3368 22.3845 29.0837 21.4928 29.0837C20.5426 29.0837 19.9453 29.3473 19.3703 29.6011C18.8737 29.8203 18.3937 30.0322 17.7173 30.0605C16.2187 30.1215 15.0705 28.4935 14.0974 27.0283C12.1318 24.0571 10.6138 18.6235 12.6573 14.9197C13.6498 13.1085 15.4597 11.9486 17.3864 11.9079C18.2392 11.8847 19.0605 12.2306 19.7785 12.533C20.3222 12.762 20.8067 12.9661 21.2009 12.9661C21.5567 12.9661 22.0334 12.7659 22.5873 12.5332C23.457 12.1678 24.5172 11.7225 25.5992 11.8468C26.3582 11.8672 28.46 12.1521 29.8224 14.2278Z" fill="white"/>
<path fill-rule="evenodd" clip-rule="evenodd" d="M64.2502 12.8236H63.2966V6.33182H64.2502V12.8236ZM40.9352 12.8847C40.4098 12.8847 39.9427 12.8643 39.5534 12.8033V6.73883C40.0984 6.65743 40.6433 6.61673 41.1882 6.61673C43.3874 6.61673 44.3994 7.75636 44.3994 9.60825C44.3994 11.7247 43.1928 12.8847 40.9352 12.8847ZM78.4573 28.9412C79.1774 28.2696 79.5277 27.3946 79.5277 26.3363C79.5277 25.4613 79.2942 24.749 78.7687 24.1792C78.2822 23.589 77.5232 23.0803 76.4917 22.6529C75.6354 22.2866 75.0515 21.9813 74.7402 21.6761C74.3704 21.3708 74.1952 20.9435 74.1952 20.4551C74.1952 20.0073 74.3704 19.6207 74.6818 19.3154C75.071 18.9695 75.5965 18.7863 76.2776 18.7863C77.1339 18.7863 77.8929 18.9695 78.5741 19.3561L79.0606 17.7281C78.3405 17.3414 77.4259 17.1379 76.336 17.1379C75.1294 17.1379 74.1369 17.4635 73.3973 18.1147C72.6578 18.766 72.288 19.6003 72.288 20.6382C72.288 22.2255 73.3389 23.4262 75.4408 24.2402C76.2192 24.5455 76.7642 24.8711 77.095 25.2171C77.4259 25.563 77.601 25.9904 77.601 26.4991C77.601 27.069 77.4064 27.5167 76.9977 27.8626C76.589 28.2086 76.0246 28.3714 75.3045 28.3714C74.2925 28.3714 73.3584 28.1272 72.5215 27.5981L72.0739 29.2668C72.8718 29.7756 73.9033 30.0401 75.1878 30.0401C76.589 30.0401 77.6789 29.6738 78.4573 28.9412ZM48.5448 29.857H46.5014L45.3726 26.1735H41.4803L40.4099 29.857H38.4248L42.2782 17.3211H44.672L48.5448 29.857ZM45.0415 24.6269L44.0295 21.3505C43.9128 21.0249 43.7182 20.2312 43.4262 18.9898H43.3873C43.2799 19.4763 43.1068 20.1865 42.8829 21.1045L42.8829 21.1047L42.8229 21.3505L41.8304 24.6269H45.0415ZM57.2443 28.8598C58.0422 27.9644 58.4509 26.7637 58.4509 25.2171C58.4509 23.8536 58.12 22.7343 57.4389 21.8592C56.7577 21.0249 55.9014 20.5975 54.8894 20.5975C53.5855 20.5975 52.6124 21.147 51.9702 22.2255H51.9313L51.8145 20.801H50.1213C50.1797 21.8185 50.1992 22.8157 50.1992 23.7722V33.5201H52.1064V28.7784C52.6124 29.6331 53.4298 30.0605 54.578 30.0605C55.6484 30.0605 56.5242 29.6535 57.2443 28.8598ZM56.5044 25.2985C56.5044 24.4234 56.3098 23.6908 55.94 23.121C55.5313 22.5308 54.9669 22.2256 54.2663 22.2256C53.7992 22.2256 53.3711 22.3884 52.9818 22.714C52.5926 23.0396 52.3396 23.4669 52.2228 24.0164C52.1645 24.2199 52.145 24.4234 52.1255 24.6269V26.1328C52.1255 26.7841 52.3201 27.3539 52.7094 27.8016C53.0986 28.2493 53.6046 28.4732 54.2079 28.4732C54.928 28.4732 55.4924 28.1882 55.9011 27.5981C56.3098 27.0283 56.5044 26.2549 56.5044 25.2985ZM67.2086 28.8598C68.0065 27.9644 68.4152 26.7637 68.4152 25.2171C68.4152 23.8536 68.0649 22.7343 67.3838 21.8592C66.7026 21.0249 65.8463 20.5975 64.8343 20.5975C63.5304 20.5975 62.5573 21.147 61.9151 22.2255H61.8761L61.7594 20.801H60.0662C60.1246 21.8185 60.1441 22.8157 60.1441 23.7722V33.5201H62.0708V28.7784C62.5768 29.6331 63.3942 30.0605 64.5424 30.0605C65.6128 30.0605 66.4885 29.6535 67.2086 28.8598ZM66.4493 25.2985C66.4493 24.4234 66.2547 23.6908 65.8849 23.121C65.4762 22.5308 64.9118 22.2256 64.2112 22.2256C63.7441 22.2256 63.316 22.3884 62.9267 22.714C62.5375 23.0396 62.2845 23.4669 62.1677 24.0164C62.1093 24.2606 62.0704 24.4641 62.0704 24.6269V26.1328C62.0704 26.7841 62.265 27.3539 62.6543 27.8016C63.0435 28.2493 63.5495 28.4732 64.1528 28.4732C64.8729 28.4732 65.4373 28.1882 65.846 27.5981C66.2547 27.0283 66.4493 26.2549 66.4493 25.2985ZM85.8913 22.3273H83.77V26.723C83.77 27.8423 84.1398 28.3917 84.8988 28.3917C85.2491 28.3917 85.5215 28.3714 85.7551 28.29L85.8134 29.8163C85.4437 29.9587 84.9377 30.0401 84.3149 30.0401C83.5559 30.0401 82.9721 29.7959 82.5439 29.3075C82.1158 28.8191 81.9017 28.0051 81.9017 26.8654V22.3069H80.6367V20.801H81.9017V19.1526L83.7894 18.5625V20.8214H85.9108L85.8913 22.3273ZM94.2789 28.6766C95.0379 27.7812 95.4271 26.6416 95.4271 25.2578C95.4271 23.9146 95.0573 22.7954 94.2983 21.9406C93.5393 21.0656 92.5079 20.6179 91.2429 20.6179C89.9389 20.6179 88.888 21.0656 88.1096 21.961C87.3311 22.8564 86.9419 23.996 86.9419 25.4002C86.9419 26.7434 87.3116 27.8626 88.0706 28.7377C88.8296 29.6128 89.8416 30.0605 91.1066 30.0605C92.43 30.0605 93.4809 29.5924 94.2789 28.6766ZM93.4427 25.2985C93.4427 24.4641 93.2676 23.7518 92.9367 23.1617C92.528 22.4494 91.9636 22.0831 91.2046 22.0831C90.4262 22.0831 89.8423 22.4494 89.4336 23.1617C89.0833 23.7518 88.9276 24.4844 88.9276 25.3392C88.9276 26.1735 89.1028 26.8858 89.4336 27.476C89.8423 28.1882 90.4262 28.5545 91.1852 28.5545C91.9247 28.5545 92.4891 28.1882 92.9172 27.4556C93.2676 26.8451 93.4427 26.1328 93.4427 25.2985ZM101.071 22.5105C101.266 22.5105 101.48 22.5308 101.675 22.5715V20.6586C101.519 20.6382 101.363 20.6179 101.188 20.6179C100.702 20.6179 100.215 20.801 99.8063 21.1063C99.3781 21.4522 99.0473 21.9406 98.8527 22.5308H98.7943L98.7164 20.801H97.0427C97.0817 21.7575 97.1011 22.6936 97.1011 23.6501V29.8366H99.0278V25.095C99.0278 24.3623 99.203 23.7722 99.5144 23.3041C99.8647 22.775 100.39 22.5105 101.071 22.5105ZM110.277 24.9118C110.277 25.2171 110.257 25.5223 110.199 25.8276H104.438C104.458 26.723 104.73 27.4149 105.275 27.883C105.761 28.3103 106.384 28.5138 107.163 28.5138C108.019 28.5138 108.797 28.3714 109.498 28.0865L109.79 29.4703C108.973 29.8366 108 30.0198 106.89 30.0198C105.547 30.0198 104.496 29.6128 103.737 28.7784C102.978 27.944 102.589 26.8451 102.589 25.4613C102.589 24.0978 102.94 22.9582 103.66 22.0627C104.399 21.0859 105.411 20.6179 106.676 20.6179C107.922 20.6179 108.875 21.1063 109.498 22.0627C110.024 22.8361 110.277 23.7722 110.277 24.9118ZM108.078 22.8361C108.331 23.2634 108.467 23.7925 108.447 24.3827H104.438C104.497 23.7722 104.691 23.2431 105.003 22.8157C105.392 22.2662 105.917 22.0017 106.54 22.0017C107.241 22.0017 107.747 22.2662 108.078 22.8361ZM40.4875 7.4511C40.7016 7.4104 40.9546 7.39005 41.2465 7.39005C42.6477 7.39005 43.3872 8.18371 43.3872 9.60825C43.3872 11.2159 42.5699 12.0707 41.1297 12.0707C40.8183 12.0707 40.6042 12.0707 40.4875 12.0503V7.4511ZM47.5518 12.9254C46.3063 12.9254 45.5084 11.9486 45.5084 10.6461C45.5084 9.28266 46.3258 8.30583 47.6297 8.30583C48.8558 8.30583 49.6731 9.2216 49.6731 10.5851C49.6731 11.9486 48.8168 12.9254 47.5518 12.9254ZM46.4623 10.6258C46.4623 9.68965 46.9099 9.01808 47.591 9.01808C48.2527 9.01808 48.7003 9.68965 48.6809 10.6054C48.6809 11.5008 48.2333 12.2131 47.5716 12.2131C46.9099 12.2131 46.4623 11.5415 46.4623 10.6258ZM56.7572 8.38722L55.4338 12.8236H54.558L54.0131 10.8903C53.8769 10.4223 53.7601 9.93386 53.6628 9.44545H53.6433C53.5655 9.93386 53.4487 10.4223 53.293 10.8903L52.7092 12.8236H51.8334L50.5879 8.38722H51.561L52.0475 10.5037C52.1643 11.0124 52.2616 11.4805 52.3394 11.9282H52.3589L52.3682 11.8843L52.3682 11.8842C52.4445 11.5247 52.541 11.0705 52.7092 10.5037L53.3125 8.38722H54.091L54.6748 10.463C54.811 10.9717 54.9278 11.4601 55.0251 11.9282H55.0446C55.103 11.4805 55.2003 10.9921 55.3365 10.463L55.862 8.38722H56.7572ZM60.708 12.8236H61.6422L61.6227 10.1781C61.6227 9.0181 61.0389 8.30583 60.1436 8.30583C59.5793 8.30583 59.0538 8.61109 58.8008 9.07915H58.7813L58.7424 8.38723H57.9056C57.9445 8.83494 57.9445 9.2623 57.9445 9.64896V12.8236H58.8981V10.1781C58.8981 9.60826 59.2873 9.0995 59.8517 9.0995C60.4161 9.0995 60.708 9.48616 60.708 10.2798V12.8236ZM65.6515 10.6461C65.6515 11.9486 66.4494 12.9254 67.695 12.9254C68.96 12.9254 69.8163 11.9486 69.8163 10.5851C69.8163 9.2216 68.9989 8.30583 67.7728 8.30583C66.4689 8.30583 65.6515 9.28266 65.6515 10.6461ZM67.7337 9.01808C67.0525 9.01808 66.6049 9.68965 66.6049 10.6258C66.6049 11.5415 67.0525 12.2131 67.7142 12.2131C68.3759 12.2131 68.8235 11.5008 68.8235 10.6054C68.8235 9.68965 68.3954 9.01808 67.7337 9.01808ZM73.4555 12.3149L73.5333 12.8236L74.3896 12.8033C74.3507 12.5387 74.3312 12.1928 74.3312 11.7451V10.117C74.3312 8.89599 73.7668 8.28548 72.6575 8.28548C72.0737 8.28548 71.5871 8.40758 71.1979 8.67214L71.3925 9.32335C71.7234 9.0995 72.0737 8.99774 72.5018 8.99774C73.0857 8.99774 73.3776 9.28265 73.3776 9.87281V9.95422C71.8012 9.95422 70.8865 10.524 70.8865 11.623C70.8865 12.3759 71.4315 12.9254 72.1905 12.9254C72.7354 12.9254 73.1441 12.7219 73.436 12.3149H73.4555ZM73.3969 10.6054C72.346 10.6054 71.8206 10.87 71.8206 11.5008C71.8206 11.9689 72.093 12.1928 72.4628 12.1928C72.9493 12.1928 73.3969 11.8061 73.3969 11.2973V10.6054ZM78.8655 12.1114L78.9045 12.8236H79.7802C79.7608 12.4573 79.7413 12.0503 79.7413 11.6229V6.33182H78.7877V8.91633H78.7682C78.5347 8.50932 78.126 8.30581 77.5616 8.30581C76.4718 8.30581 75.6933 9.28264 75.6933 10.6665C75.6933 11.9893 76.4523 12.9254 77.4838 12.9254C78.126 12.9254 78.5736 12.6405 78.8461 12.1114H78.8655ZM78.768 10.2188C78.768 9.5879 78.3788 9.05879 77.7755 9.05879C77.0749 9.05879 76.6467 9.71001 76.6467 10.6258C76.6467 11.5212 77.0943 12.1317 77.756 12.1317C78.3593 12.1317 78.768 11.5823 78.768 10.9514V10.2188ZM83.6732 10.6461C83.6732 11.9486 84.4711 12.9254 85.7167 12.9254C86.9817 12.9254 87.838 11.9486 87.838 10.5851C87.838 9.2216 87.0206 8.30583 85.7945 8.30583C84.4906 8.30583 83.6732 9.28266 83.6732 10.6461ZM85.7553 9.01808C85.0742 9.01808 84.646 9.68965 84.646 10.6258C84.646 11.5415 85.0936 12.2131 85.7553 12.2131C86.417 12.2131 86.8646 11.5008 86.8646 10.6054C86.8452 9.68965 86.417 9.01808 85.7553 9.01808ZM91.9635 12.8236H92.8977V10.1781C92.8977 9.0181 92.3138 8.30583 91.4186 8.30583C90.8542 8.30583 90.3287 8.61109 90.0757 9.07915H90.0563L90.0174 8.38723H89.1805C89.2194 8.83494 89.2194 9.2623 89.2194 9.64896V12.8236H90.173V10.1781C90.173 9.60826 90.5428 9.0995 91.1072 9.0995C91.6716 9.0995 91.9635 9.48616 91.9635 10.2798V12.8236ZM99.2615 9.11983H98.23V11.277C98.23 11.8264 98.4052 12.091 98.7749 12.091C98.9501 12.091 99.0863 12.0706 99.2031 12.0503L99.2226 12.8033C99.0474 12.8847 98.7944 12.905 98.483 12.905C97.7435 12.905 97.2959 12.4777 97.2959 11.3584V9.11983H96.6731V8.38721H97.2959V7.57319L98.23 7.28828V8.38721H99.2615V9.11983ZM103.329 12.8236H104.263V10.1577C104.263 8.99773 103.718 8.26511 102.823 8.26511C102.259 8.26511 101.831 8.50932 101.539 8.99773H101.519V6.33182H100.585V12.844H101.519V10.1577C101.519 9.44544 101.986 9.09948 102.473 9.09948C103.037 9.09948 103.329 9.50649 103.329 10.3002V12.8236ZM109.381 10.8496H106.54C106.559 11.684 107.085 12.1724 107.883 12.1724C108.311 12.1724 108.681 12.091 109.031 11.9689L109.187 12.6608C108.778 12.844 108.311 12.9254 107.766 12.9254C106.443 12.9254 105.645 12.0503 105.645 10.6868C105.645 9.32336 106.443 8.30583 107.649 8.30583C108.739 8.30583 109.42 9.1402 109.42 10.4223C109.42 10.5444 109.42 10.6868 109.381 10.8496ZM107.591 8.95703C108.194 8.95703 108.525 9.44544 108.525 10.1374H106.559C106.618 9.44544 107.046 8.95703 107.591 8.95703Z" fill="white"/>
</svg>
