<svg width="1600" height="575" viewBox="0 0 1600 575" fill="none" xmlns="http://www.w3.org/2000/svg">
<g clip-path="url(#clip0_4301_16803)">
<rect width="1600" height="575" fill="#173832"/>
<g opacity="0.04">
<path d="M1626.83 359.942L1812.27 634.977L1681.29 702.661L1561.3 393.804L1626.83 359.942Z" fill="#F9FAFB"/>
<path d="M1519.05 32.2681L1839 124.472L1782.43 259.999L1490.73 100.032L1519.05 32.2681Z" fill="#F9FAFB"/>
<path d="M1224.52 -149.937L1529.28 -283.65L1573.58 -143.709L1246.7 -79.9266L1224.52 -149.937Z" fill="#F9FAFB"/>
<path d="M881.088 -101.39L1028.05 -398.5L1152.52 -319.581L943.364 -61.8907L881.088 -101.39Z" fill="#F9FAFB"/>
<path d="M649.443 155.259L569.833 -166.252L716.201 -185.292L722.667 145.72L649.443 155.259Z" fill="#F9FAFB"/>
<path d="M637.935 499.811L368.999 304.405L468.799 196.276L687.835 445.727L637.935 499.811Z" fill="#F9FAFB"/>
<path d="M851.992 771.089L519.59 793.204L526.095 646.64L855.245 697.807L851.992 771.089Z" fill="#F9FAFB"/>
<path d="M1191.39 842.232L951.056 1071.5L861.252 955.053L1146.49 783.969L1191.39 842.232Z" fill="#F9FAFB"/>
<path d="M1497.41 679.83L1461.59 1008.99L1317.45 977.138L1425.3 663.904L1497.41 679.83Z" fill="#F9FAFB"/>
<path d="M1626.83 359.942L1812.27 634.977L1681.29 702.661L1561.3 393.804L1626.83 359.942Z" fill="#F9FAFB"/>
<path d="M1519.05 32.2681L1839 124.472L1782.43 259.999L1490.73 100.032L1519.05 32.2681Z" fill="#F9FAFB"/>
<path d="M1166.31 82.621L1327.12 12.0623L1350.5 85.9076L1178.01 119.564L1166.31 82.621Z" fill="#F9FAFB"/>
<path d="M985.075 108.256L1062.63 -48.5253L1128.31 -6.88071L1017.94 129.099L985.075 108.256Z" fill="#F9FAFB"/>
<path d="M862.851 243.692L820.842 74.0352L898.079 63.9881L901.491 238.658L862.851 243.692Z" fill="#F9FAFB"/>
<path d="M856.766 425.486L714.852 322.373L767.515 265.315L883.098 396.946L856.766 425.486Z" fill="#F9FAFB"/>
<path d="M969.708 568.625L794.304 580.295L797.737 502.955L971.425 529.955L969.708 568.625Z" fill="#F9FAFB"/>
<path d="M1148.83 606.158L1022.01 727.139L974.617 665.692L1125.13 575.413L1148.83 606.158Z" fill="#F9FAFB"/>
<path d="M1310.31 520.477L1291.41 694.17L1215.35 677.362L1272.26 512.074L1310.31 520.477Z" fill="#F9FAFB"/>
<path d="M1378.63 351.639L1476.48 496.771L1407.37 532.487L1344.05 369.507L1378.63 351.639Z" fill="#F9FAFB"/>
<path d="M1321.73 178.759L1490.56 227.414L1460.71 298.929L1306.78 214.517L1321.73 178.759Z" fill="#F9FAFB"/>
<path d="M1107.22 195.896L1142.28 218.127L1138.41 222.881L1085.13 288.53L1080.98 285.891L1061.88 273.776L1064.06 269.385L1102.03 192.616L1107.22 195.896Z" fill="#F9FAFB"/>
<path d="M1238.21 297.903L1227.77 337.906L1222.03 335.717L1142.74 305.649L1143.98 300.912L1149.67 279.113L1154.55 279.819L1239.75 291.982L1238.21 297.903Z" fill="#F9FAFB"/>
<path d="M1181.07 453.231L1139.56 455.723L1139.88 449.616L1144.15 365.385L1149.07 365.096L1171.69 363.738L1172.52 368.565L1187.21 452.852L1181.07 453.231Z" fill="#F9FAFB"/>
<path d="M1014.77 447.222L999.555 408.759L1005.5 407.173L1087.43 385.184L1089.22 389.742L1097.51 410.702L1093.15 412.979L1017.03 452.908L1014.77 447.222Z" fill="#F9FAFB"/>
<path d="M969.126 288.18L1001.23 261.917L1004.59 267.044L1050.95 337.685L1047.14 340.791L1029.64 355.102L1026.12 351.683L964.383 292.074L969.126 288.18Z" fill="#F9FAFB"/>
</g>
</g>
<defs>
<clipPath id="clip0_4301_16803">
<rect width="1600" height="575" fill="white"/>
</clipPath>
</defs>
</svg>
