<svg width="1504" height="710" viewBox="0 0 1504 710" fill="none" xmlns="http://www.w3.org/2000/svg">
<g opacity="0.24" clip-path="url(#clip0_4681_979)">
<path d="M858.757 1264.29C765.485 1229.82 678.279 1179.12 604.278 1113.22C497.816 1016.9 422.797 897.271 392.371 749.241C391.353 746.201 393.389 744.165 392.371 741.125C383.252 701.58 381.216 665.088 380.198 625.543C380.198 558.626 388.314 495.766 382.22 428.849C380.198 412.632 378.162 398.437 375.122 383.225C369.043 356.871 362.949 332.524 352.812 308.191C334.559 265.606 312.263 225.057 282.854 187.533C209.868 96.2961 108.499 35.4626 0.03125 -0.0126953C0.0220947 -0.00805664 0.012085 -0.00366211 0.00292969 0.000976563C0.00952148 -0.00439453 0.0168457 -0.00927734 0.0234375 -0.0146484C0.0126953 -0.0181885 0.00195312 -0.0218506 -0.00878906 -0.0253906C-0.0045166 -0.0170898 -0.00134277 -0.00830078 0.00292969 0C-0.00292969 -0.00720215 -0.00878906 -0.0142822 -0.0146484 -0.0214844C-0.0185547 -0.00939941 -0.0234375 0.00256348 -0.0273438 0.0146484L-0.0214844 -0.0302734C-98.9435 -121.901 -167.757 -271.009 -176.359 -428.719C-177.793 -481.771 -174.926 -531.955 -166.323 -585.007C-164.889 -590.742 -163.455 -595.044 -162.021 -599.346C-143.382 -696.847 -96.0649 -775.708 -53.0498 -861.738C-11.4684 -943.467 5.73804 -1032.37 -4.29883 -1124.13C-22.9387 -1276.12 -108.969 -1406.6 -223.677 -1501.23C-104.668 -1506.97 12.9072 -1502.67 131.916 -1498.36C183.534 -1495.5 235.153 -1494.06 286.771 -1501.23C328.353 -1410.9 354.162 -1313.4 359.897 -1214.46C367.067 -1071.08 335.522 -933.431 252.359 -807.253C250.926 -804.385 248.058 -804.385 246.624 -801.518C225.116 -767.105 200.741 -739.862 173.498 -711.186C126.181 -663.869 75.9967 -625.155 32.9814 -573.536C22.9446 -560.632 14.3413 -549.161 5.73828 -536.257C-8.6001 -513.315 -21.5051 -491.808 -31.542 -467.433C-48.748 -424.417 -61.6523 -379.968 -67.3877 -332.651C-80.2904 -216.528 -51.6233 -101.837 -0.0195313 -0.0458984L0.388672 -3.6582C17.108 -158.536 73.8215 -311.158 178.442 -427.857C214.948 -466.385 252.458 -499.837 296.047 -531.267C301.122 -534.306 305.166 -536.343 309.224 -538.364C391.354 -594.126 480.568 -616.437 571.817 -646.849C659.009 -675.239 734.042 -725.925 791.826 -797.918C886.116 -918.576 917.546 -1071.67 903.351 -1219.7C991.56 -1139.6 1071.65 -1053.41 1152.77 -966.223C1187.24 -927.695 1222.72 -890.186 1264.29 -858.756C1229.82 -765.484 1179.12 -678.278 1113.22 -604.277C1016.9 -497.815 897.271 -422.796 749.241 -392.37C746.201 -391.352 744.165 -393.388 741.125 -392.37C701.58 -383.251 665.088 -381.214 625.543 -380.196C558.626 -380.196 495.766 -388.313 428.849 -382.219C412.632 -380.197 398.437 -378.161 383.224 -375.121C356.87 -369.042 332.523 -362.948 308.191 -352.811C265.606 -334.558 225.057 -312.262 187.533 -282.854C96.2963 -209.867 35.4636 -108.498 -0.0117188 -0.0302734C-0.0111084 -0.0289307 -0.010376 -0.02771 -0.00976563 -0.0263672L0.0322266 -0.0214844C121.903 -98.9442 271.011 -167.759 428.722 -176.361C481.774 -177.795 531.959 -174.928 585.011 -166.325C590.746 -164.891 595.048 -163.457 599.35 -162.023C696.851 -143.383 775.712 -96.0669 861.742 -53.0518C943.471 -11.4703 1032.37 5.73608 1124.14 -4.30078C1276.12 -22.9408 1406.6 -108.971 1501.24 -223.679C1506.97 -104.67 1502.67 12.9053 1498.37 131.914C1495.5 183.532 1494.07 235.151 1501.24 286.77C1410.9 328.351 1313.4 354.16 1214.47 359.896C1071.08 367.065 933.435 335.52 807.257 252.357C804.389 250.924 804.389 248.056 801.521 246.622C767.109 225.115 739.866 200.739 711.189 173.496C663.873 126.179 625.158 75.9948 573.54 32.9795C560.636 22.9427 549.165 14.3394 536.261 5.73633C513.319 -8.60205 491.811 -21.5071 467.436 -31.5439C424.42 -48.75 379.971 -61.6543 332.654 -67.3896C216.529 -80.2924 101.838 -51.6252 0.0458984 -0.0205078L3.65918 0.388672C158.537 17.108 311.159 73.8217 427.858 178.442C466.386 214.948 499.838 252.458 531.268 296.047C534.307 301.123 536.344 305.166 538.365 309.224C594.127 391.354 616.438 480.568 646.85 571.817C675.24 659.009 725.926 734.042 797.919 791.826C918.577 886.116 1071.67 917.546 1219.7 903.351C1139.6 991.56 1053.42 1071.65 966.224 1152.77C927.696 1187.24 890.187 1222.72 858.757 1264.29ZM223.684 1501.23C104.675 1506.97 -12.9004 1502.67 -131.909 1498.37C-183.527 1495.5 -235.146 1494.07 -286.765 1501.23C-328.346 1410.9 -354.155 1313.4 -359.891 1214.47C-367.06 1071.08 -335.514 933.433 -252.352 807.255C-250.918 804.387 -248.05 804.387 -246.616 801.52C-225.109 767.107 -200.733 739.864 -173.49 711.188C-126.173 663.871 -75.9899 625.156 -32.9746 573.538C-22.9379 560.634 -14.3344 549.163 -5.73145 536.259C8.60693 513.317 21.512 491.809 31.5488 467.434C48.7548 424.419 61.6592 379.97 67.3945 332.653C80.2971 216.53 51.6315 101.84 0.0283203 0.0488281L-0.382813 3.66113C-17.1023 158.539 -73.8157 311.161 -178.437 427.86C-214.942 466.388 -252.451 499.84 -296.04 531.27C-301.116 534.309 -305.159 536.345 -309.217 538.367C-391.347 594.129 -480.561 616.44 -571.811 646.852C-659.002 675.242 -734.036 725.928 -791.819 797.921C-886.109 918.579 -917.539 1071.67 -903.344 1219.7C-991.554 1139.61 -1071.65 1053.42 -1152.76 966.226C-1187.23 927.698 -1222.72 890.189 -1264.29 858.759C-1229.82 765.487 -1179.11 678.281 -1113.21 604.28C-1016.89 497.818 -897.264 422.799 -749.234 392.373C-746.195 391.355 -744.159 393.391 -741.119 392.373C-701.574 383.254 -665.083 381.217 -625.537 380.199C-558.62 380.199 -495.76 388.315 -428.843 382.222C-412.626 380.2 -398.431 378.164 -383.218 375.124C-356.864 369.045 -332.517 362.951 -308.185 352.813C-265.6 334.561 -225.051 312.264 -187.527 282.856C-96.2903 209.87 -35.4558 108.501 0.0195312 0.0332031C0.019043 0.0323486 0.019043 0.0311279 0.0185547 0.0302734L-0.0244141 0.0253906C-121.896 98.9481 -271.004 167.763 -428.715 176.365C-481.767 177.799 -531.952 174.931 -585.004 166.328C-590.739 164.894 -595.04 163.46 -599.342 162.026C-696.843 143.386 -775.705 96.0699 -861.735 53.0547C-943.464 11.4734 -1032.36 -5.73315 -1124.13 4.30371C-1276.12 22.9436 -1406.59 108.974 -1501.23 223.682C-1506.96 104.673 -1502.66 -12.9023 -1498.36 -131.911C-1495.49 -183.529 -1494.06 -235.147 -1501.23 -286.766C-1410.9 -328.347 -1313.4 -354.156 -1214.46 -359.892C-1071.08 -367.061 -933.427 -335.516 -807.249 -252.354C-804.382 -250.92 -804.381 -248.052 -801.514 -246.618C-767.102 -225.111 -739.858 -200.735 -711.182 -173.492C-663.865 -126.175 -625.151 -75.9908 -573.533 -32.9756C-560.629 -22.9387 -549.157 -14.3364 -536.253 -5.7334C-513.312 8.60498 -491.804 21.51 -467.429 31.5469C-424.413 48.7529 -379.964 61.6582 -332.647 67.3936C-216.523 80.2963 -101.831 51.629 -0.0390625 0.0244141L-3.6543 -0.385742C-158.532 -17.1051 -311.154 -73.8195 -427.854 -178.44C-466.381 -214.946 -499.833 -252.455 -531.263 -296.044C-534.302 -301.12 -536.339 -305.163 -538.36 -309.221C-594.122 -391.351 -616.433 -480.565 -646.845 -571.814C-675.235 -659.006 -725.921 -734.04 -797.914 -791.823C-918.572 -886.113 -1071.66 -917.543 -1219.69 -903.348C-1139.6 -991.557 -1053.41 -1071.65 -966.219 -1152.76C-927.691 -1187.23 -890.182 -1222.72 -858.752 -1264.29C-765.48 -1229.82 -678.274 -1179.12 -604.273 -1113.22C-497.811 -1016.89 -422.792 -897.268 -392.366 -749.238C-391.348 -746.199 -393.384 -744.163 -392.366 -741.123C-383.247 -701.578 -381.21 -665.085 -380.192 -625.54C-380.192 -558.623 -388.309 -495.763 -382.215 -428.846C-380.193 -412.629 -378.157 -398.434 -375.117 -383.222C-369.038 -356.868 -362.944 -332.521 -352.807 -308.188C-334.554 -265.603 -312.258 -225.054 -282.85 -187.53C-209.862 -96.2925 -108.492 -35.4586 -0.0234375 0.0166016C-0.0142822 0.0119629 -0.00524902 0.0065918 0.00390625 0.00195313C-0.00305176 0.00756836 -0.00964355 0.013916 -0.0166016 0.0195313C-0.00500488 0.0233154 0.00695801 0.0264893 0.0185547 0.0302734C0.0137939 0.020752 0.00866699 0.0114746 0.00390625 0.00195313C0.0101318 0.00964355 0.0162354 0.0177002 0.0224609 0.0253906C0.0264893 0.0130615 0.0301514 0.000610352 0.0341797 -0.0117187L0.0292969 0.0332031C98.9508 121.904 167.765 271.012 176.367 428.721C177.801 481.773 174.933 531.957 166.33 585.009C164.896 590.744 163.462 595.046 162.028 599.348C143.388 696.849 96.0718 775.71 53.0566 861.74C11.4752 943.469 -5.7312 1032.37 4.30566 1124.13C22.9457 1276.12 108.976 1406.6 223.684 1501.23Z" fill="#030712" fill-opacity="0.06"/>
</g>
<defs>
<clipPath id="clip0_4681_979">
<rect width="3008" height="3008" fill="white" transform="matrix(-1 0 0 -1 1504 1504)"/>
</clipPath>
</defs>
</svg>
