<svg width="1600" height="514" viewBox="0 0 1600 514" fill="none" xmlns="http://www.w3.org/2000/svg">
<g clip-path="url(#clip0_4507_4276)">
<path d="M0 16C0 7.16344 7.16344 0 16 0H1584C1592.84 0 1600 7.16344 1600 16V514H0V16Z" fill="#101929"/>
<g opacity="0.04">
<path d="M331.047 154.316L424.523 292.957L358.5 327.075L298.015 171.386L331.047 154.316Z" fill="#F9FAFB"/>
<path d="M276.719 -10.8577L437.999 35.6206L409.486 103.937L262.443 23.3006L276.719 -10.8577Z" fill="#F9FAFB"/>
<path d="M128.253 -102.704L281.874 -170.106L304.209 -99.5643L139.43 -67.413L128.253 -102.704Z" fill="#F9FAFB"/>
<path d="M-44.8662 -78.2322L29.2153 -228L91.9596 -188.218L-13.4741 -58.3214L-44.8662 -78.2322Z" fill="#F9FAFB"/>
<path d="M-161.634 51.14L-201.764 -110.928L-127.983 -120.526L-124.723 46.3312L-161.634 51.14Z" fill="#F9FAFB"/>
<path d="M-167.435 224.822L-303.001 126.322L-252.694 71.8155L-142.281 197.559L-167.435 224.822Z" fill="#F9FAFB"/>
<path d="M-59.5326 361.569L-227.091 372.716L-223.812 298.836L-57.8931 324.628L-59.5326 361.569Z" fill="#F9FAFB"/>
<path d="M111.553 397.43L-9.59653 513L-54.8652 454.301L88.9188 368.061L111.553 397.43Z" fill="#F9FAFB"/>
<path d="M265.812 315.566L247.756 481.489L175.095 465.434L229.461 307.539L265.812 315.566Z" fill="#F9FAFB"/>
<path d="M331.047 154.316L424.523 292.957L358.5 327.075L298.015 171.386L331.047 154.316Z" fill="#F9FAFB"/>
<path d="M276.719 -10.8577L437.999 35.6206L409.486 103.937L262.443 23.3006L276.719 -10.8577Z" fill="#F9FAFB"/>
<path d="M98.9078 14.5242L179.972 -21.0431L191.757 16.181L104.806 33.1468L98.9078 14.5242Z" fill="#F9FAFB"/>
<path d="M7.55209 27.4462L46.6438 -51.5842L79.7531 -30.5919L24.1173 37.9528L7.55209 27.4462Z" fill="#F9FAFB"/>
<path d="M-54.0588 95.7173L-75.2348 10.1963L-36.3013 5.13173L-34.5815 93.1797L-54.0588 95.7173Z" fill="#F9FAFB"/>
<path d="M-57.1263 187.356L-128.663 135.379L-102.116 106.617L-43.853 172.97L-57.1263 187.356Z" fill="#F9FAFB"/>
<path d="M-0.194153 259.51L-88.6122 265.392L-86.8819 226.407L0.671021 240.017L-0.194153 259.51Z" fill="#F9FAFB"/>
<path d="M90.0967 278.43L26.1678 339.414L2.28009 308.44L78.1529 262.932L90.0967 278.43Z" fill="#F9FAFB"/>
<path d="M171.498 235.24L161.97 322.795L123.627 314.322L152.316 231.003L171.498 235.24Z" fill="#F9FAFB"/>
<path d="M205.936 150.131L255.262 223.29L220.422 241.293L188.505 159.138L205.936 150.131Z" fill="#F9FAFB"/>
<path d="M177.252 62.9857L262.357 87.5117L247.311 123.561L169.719 81.0106L177.252 62.9857Z" fill="#F9FAFB"/>
<path d="M69.1249 71.624L86.7956 82.8306L84.8448 85.227L57.9893 118.319L55.8976 116.989L46.2685 110.882L47.3685 108.669L66.5076 69.9707L69.1249 71.624Z" fill="#F9FAFB"/>
<path d="M135.154 123.044L129.89 143.209L126.994 142.105L87.0266 126.949L87.6532 124.561L90.5218 113.572L92.9798 113.928L135.928 120.059L135.154 123.044Z" fill="#F9FAFB"/>
<path d="M106.35 201.342L85.426 202.598L85.5869 199.52L87.7411 157.06L90.22 156.915L101.622 156.23L102.041 158.663L109.445 201.151L106.35 201.342Z" fill="#F9FAFB"/>
<path d="M22.5186 198.313L14.8508 178.924L17.8464 178.125L59.1454 167.041L60.0508 169.339L64.2291 179.904L62.0302 181.052L23.6581 201.179L22.5186 198.313Z" fill="#F9FAFB"/>
<path d="M-0.487885 118.143L15.6973 104.904L17.3878 107.488L40.7578 143.097L38.8385 144.663L30.0187 151.877L28.2405 150.153L-2.87878 120.105L-0.487885 118.143Z" fill="#F9FAFB"/>
</g>
</g>
<defs>
<clipPath id="clip0_4507_4276">
<path d="M0 16C0 7.16344 7.16344 0 16 0H1584C1592.84 0 1600 7.16344 1600 16V514H0V16Z" fill="white"/>
</clipPath>
</defs>
</svg>
